<svg width="31" height="41" viewBox="0 0 31 41" fill="none" xmlns="http://www.w3.org/2000/svg">
<path fill-rule="evenodd" clip-rule="evenodd" d="M10.4749 30.0977C19.9088 30.0977 25.0688 22.402 25.0688 15.7292C25.0688 15.5101 25.0688 15.2927 25.0538 15.0761C26.0576 14.3623 26.9239 13.476 27.6126 12.4619C26.6776 12.8705 25.6839 13.1385 24.6676 13.2566C25.7376 12.6253 26.5389 11.6334 26.9226 10.463C25.9151 11.0513 24.8138 11.4665 23.6651 11.6892C21.7226 9.6561 18.4738 9.5576 16.4075 11.4701C15.0762 12.7033 14.51 14.5419 14.9237 16.2956C10.7999 16.0913 6.95736 14.1739 4.35233 11.0197C2.99106 13.3272 3.68732 16.2781 5.9411 17.7599C5.12484 17.7365 4.32608 17.5201 3.61232 17.1287V17.1928C3.61357 19.5964 5.33484 21.666 7.72737 22.1422C6.97236 22.3453 6.17985 22.3747 5.41234 22.2283C6.0836 24.286 8.00988 25.6954 10.2037 25.736C8.38738 27.1415 6.1436 27.9046 3.83357 27.9022C3.42607 27.901 3.01856 27.8775 2.6123 27.8296C4.95859 29.3113 7.68737 30.0977 10.4749 30.094" fill="#9E19EF"/>
</svg>
