<?xml version="1.0" encoding="UTF-8" standalone="no"?>
<!-- Created with Inkscape (http://www.inkscape.org/) -->

<svg
   version="1.1"
   id="svg2"
   width="1356.2267"
   height="938.33197"
   viewBox="0 0 1356.2267 938.33197"
   sodipodi:docname="CC-logo-colors-mono-vertical-RGB.ai"
   xmlns:inkscape="http://www.inkscape.org/namespaces/inkscape"
   xmlns:sodipodi="http://sodipodi.sourceforge.net/DTD/sodipodi-0.dtd"
   xmlns="http://www.w3.org/2000/svg"
   xmlns:svg="http://www.w3.org/2000/svg">
  <defs
     id="defs6">
    <clipPath
       clipPathUnits="userSpaceOnUse"
       id="clipPath16">
      <path
         d="M 0,703.749 H 1017.172 V 0 H 0 Z"
         id="path14" />
    </clipPath>
  </defs>
  <sodipodi:namedview
     id="namedview4"
     pagecolor="#ffffff"
     bordercolor="#000000"
     borderopacity="0.25"
     inkscape:showpageshadow="2"
     inkscape:pageopacity="0.0"
     inkscape:pagecheckerboard="0"
     inkscape:deskcolor="#d1d1d1" />
  <g
     id="g8"
     inkscape:groupmode="layer"
     inkscape:label="CC-logo-colors-mono-vertical-RGB"
     transform="matrix(1.3333333,0,0,-1.3333333,0,938.332)">
    <g
       id="g10">
      <g
         id="g12"
         clip-path="url(#clipPath16)">
        <g
           id="g18"
           transform="translate(149.6954,79.3842)">
          <path
             d="M 0,0 C 3.63,3.192 5.851,7.317 6.691,12.317 H 35.103 C 33.723,0.311 28.743,-9.521 20.192,-17.12 11.641,-24.719 -0.78,-28.533 -17.071,-28.533 c -15.542,0 -28.293,4.944 -38.284,14.804 -9.991,9.859 -15.001,22.515 -15.001,37.94 0,15.622 4.98,28.307 14.911,38.082 9.961,9.746 22.742,14.634 38.374,14.634 16.261,0 28.712,-3.786 37.323,-11.329 8.611,-7.571 13.561,-17.402 14.851,-29.522 H 6.691 C 5.73,40.879 3.36,44.947 -0.42,48.252 c -3.781,3.306 -9.031,4.944 -15.841,4.944 -7.231,0 -13.202,-2.628 -17.882,-7.882 -4.681,-5.254 -6.961,-12.289 -6.871,-21.103 0.12,-8.815 2.46,-15.849 7.111,-21.104 4.651,-5.254 10.561,-7.881 17.792,-7.881 C -8.971,-4.803 -3.601,-3.192 0,0"
             style="fill:#000000;fill-opacity:1;fill-rule:nonzero;stroke:none"
             id="path20" />
        </g>
        <g
           id="g22"
           transform="translate(264.3761,82.2377)">
          <path
             d="m 0,0 c 4.957,5.198 7.419,12.317 7.419,21.329 0,9.012 -2.494,16.103 -7.503,21.245 -4.989,5.17 -11.274,7.74 -18.841,7.74 -7.561,0 -13.852,-2.57 -18.864,-7.74 -4.983,-5.17 -7.504,-12.233 -7.504,-21.245 0,-9.012 2.491,-16.131 7.504,-21.329 4.986,-5.198 11.271,-7.825 18.864,-7.825 C -11.242,-7.797 -4.951,-5.198 0,0 m -58.85,-16.979 c -10.293,9.605 -15.454,22.375 -15.454,38.308 0,15.933 5.161,28.703 15.454,38.308 10.293,9.605 23.612,14.436 39.925,14.436 16.288,0 29.608,-4.802 39.901,-14.436 10.293,-9.605 15.455,-22.375 15.455,-38.308 0,-15.933 -5.162,-28.703 -15.455,-38.308 -10.293,-9.605 -23.613,-14.408 -39.901,-14.408 -16.313,0 -29.602,4.803 -39.925,14.408"
             style="fill:#000000;fill-opacity:1;fill-rule:nonzero;stroke:none"
             id="path24" />
        </g>
        <g
           id="g26"
           transform="translate(375.1139,80.9164)">
          <path
             d="m 0,0 c 4.693,5.059 7.034,12.691 7.034,22.838 0,10.031 -2.372,17.577 -7.123,22.607 -4.746,5.03 -10.994,7.545 -18.778,7.545 H -34.675 V -7.574 h 15.808 C -10.994,-7.603 -4.714,-5.088 0,0 m 21.25,61.345 c 10.125,-9.367 15.176,-22.202 15.176,-38.507 0,-16.507 -5.02,-29.429 -15.118,-38.824 -10.066,-9.368 -23.47,-14.079 -40.175,-14.079 h -44.894 v 105.46 h 44.894 c 16.616,0 29.988,-4.684 40.117,-14.05"
             style="fill:#000000;fill-opacity:1;fill-rule:nonzero;stroke:none"
             id="path28" />
        </g>
        <g
           id="g30"
           transform="translate(501.1808,73.6025)">
          <path
             d="M 0,0 V -22.751 H -79.095 V 82.708 H -0.77 V 59.957 H -50.531 V 41.195 H -7.678 V 19.224 H -50.531 V 0 Z"
             style="fill:#000000;fill-opacity:1;fill-rule:nonzero;stroke:none"
             id="path32" />
        </g>
        <g
           id="g34"
           transform="translate(582.0787,79.3842)">
          <path
             d="M 0,0 C 3.633,3.192 5.854,7.317 6.691,12.317 H 35.107 C 33.727,0.311 28.743,-9.521 20.195,-17.12 11.643,-24.719 -0.78,-28.533 -17.068,-28.533 c -15.545,0 -28.295,4.944 -38.288,14.804 -9.987,9.859 -14.996,22.515 -14.996,37.94 0,15.622 4.977,28.307 14.907,38.082 9.934,9.746 22.742,14.634 38.377,14.634 16.261,0 28.711,-3.786 37.322,-11.329 8.61,-7.571 13.561,-17.402 14.853,-29.522 H 6.691 c -0.96,4.803 -3.327,8.871 -7.107,12.176 -3.781,3.306 -9.064,4.944 -15.872,4.944 -7.234,0 -13.204,-2.628 -17.881,-7.882 -4.682,-5.254 -6.965,-12.289 -6.871,-21.103 0.117,-8.815 2.457,-15.849 7.108,-21.104 4.651,-5.254 10.562,-7.881 17.791,-7.881 C -9.001,-4.803 -3.628,-3.192 0,0"
             style="fill:#000000;fill-opacity:1;fill-rule:nonzero;stroke:none"
             id="path36" />
        </g>
        <g
           id="g38"
           transform="translate(696.7613,82.2377)">
          <path
             d="m 0,0 c 4.956,5.198 7.419,12.317 7.419,21.329 0,9.012 -2.494,16.103 -7.504,21.245 -4.988,5.17 -11.273,7.74 -18.84,7.74 -7.561,0 -13.852,-2.57 -18.861,-7.74 -4.988,-5.17 -7.509,-12.233 -7.509,-21.245 0,-9.012 2.494,-16.131 7.509,-21.329 4.982,-5.198 11.267,-7.825 18.861,-7.825 C -11.269,-7.797 -4.951,-5.198 0,0 m -58.853,-16.979 c -10.292,9.605 -15.449,22.375 -15.449,38.308 0,15.933 5.157,28.703 15.449,38.308 10.293,9.605 23.614,14.436 39.928,14.436 16.288,0 29.608,-4.802 39.901,-14.436 10.293,-9.605 15.455,-22.375 15.455,-38.308 0,-15.933 -5.162,-28.703 -15.455,-38.308 -10.293,-9.605 -23.613,-14.408 -39.901,-14.408 -16.314,0 -29.602,4.803 -39.928,14.408"
             style="fill:#000000;fill-opacity:1;fill-rule:nonzero;stroke:none"
             id="path40" />
        </g>
        <g
           id="g42"
           transform="translate(812.7613,82.2377)">
          <path
             d="m 0,0 c 4.951,5.198 7.414,12.317 7.414,21.329 0,9.012 -2.489,16.103 -7.504,21.245 -4.988,5.17 -11.278,7.74 -18.84,7.74 -7.566,0 -13.857,-2.57 -18.872,-7.74 -4.988,-5.17 -7.509,-12.233 -7.509,-21.245 0,-9.012 2.495,-16.131 7.509,-21.329 4.983,-5.198 11.274,-7.825 18.872,-7.825 7.683,0.028 14,2.627 18.93,7.825 m -58.841,-16.979 c -10.293,9.605 -15.455,22.375 -15.455,38.308 0,15.933 5.162,28.703 15.455,38.308 10.298,9.605 23.617,14.436 39.911,14.436 16.288,0 29.608,-4.802 39.907,-14.436 10.293,-9.605 15.46,-22.375 15.46,-38.308 0,-15.933 -5.167,-28.703 -15.46,-38.308 -10.299,-9.605 -23.619,-14.408 -39.907,-14.408 -16.294,0 -29.613,4.803 -39.911,14.408"
             style="fill:#000000;fill-opacity:1;fill-rule:nonzero;stroke:none"
             id="path44" />
        </g>
        <g
           id="g46"
           transform="translate(938.8384,75.1347)">
          <path
             d="m 0,0 v -24.284 h -79.095 v 105.46 h 29.086 V 0 Z"
             style="fill:#000000;fill-opacity:1;fill-rule:nonzero;stroke:none"
             id="path48" />
        </g>
        <g
           id="g50"
           transform="translate(414.6109,443.5805)">
          <path
             d="m 0,0 105.96,105.96 c 25.196,25.214 70.522,32.932 106.101,19.498 l -55.172,55.176 c -10.286,10.283 -22.794,18.304 -36.714,22.646 -8.128,2.533 -16.572,3.758 -25.016,3.758 -11.578,0 -23.158,-2.305 -33.934,-6.704 C 39.377,191.417 24.358,173.606 8.083,157.328 l -19.911,-19.909 c -5.016,-5.023 -9.392,-11.125 -12.997,-18.15 -6.81,-13.13 -10.409,-28.624 -10.409,-44.802 0,-24.941 8.533,-47.767 23.406,-62.649 z"
             style="fill:#0f3fff;fill-opacity:1;fill-rule:nonzero;stroke:none"
             id="path52" />
        </g>
        <g
           id="g54"
           transform="translate(356.6339,534.8271)">
          <path
             d="m 0,0 c -29.721,-29.706 -68.087,-59.085 -68.087,-105.146 0,-23.115 9.182,-44.513 26.543,-61.881 L 1.76,-210.328 c 18.315,-18.277 48.4,-25.601 73.565,-23 19.054,1.971 38.239,9.285 51.953,22.995 l 13.679,13.693 -105.964,105.971 c -16.282,16.275 -25.621,41.086 -25.621,68.057 0,13.741 2.432,27.067 7.085,39.062 z"
             style="fill:#0f3fff;fill-opacity:1;fill-rule:nonzero;stroke:none"
             id="path56" />
        </g>
        <g
           id="g58"
           transform="translate(675.2574,520.8354)">
          <path
             d="m 0,0 c -8.355,8.359 -10.865,10.865 -19.227,19.225 -4.453,4.444 -9.682,8.253 -15.946,11.622 -13.32,7.111 -28.855,10.527 -44.353,10.528 -24.194,10e-4 -48.319,-8.319 -63.914,-23.911 L -157.12,3.769 -49.291,-104.06 c 16.275,-16.273 25.612,-41.086 25.612,-68.053 0,-13.716 -2.417,-26.99 -7.035,-38.967 l 58.053,58.052 c 2.055,2.053 4.025,4.293 5.803,6.436 12.709,15.395 19.417,34.054 20.158,52.894 0.718,18.361 -4.229,37.841 -15.006,52.884 C 27.387,-25.591 13.178,-13.175 0,0"
             style="fill:#0f3fff;fill-opacity:1;fill-rule:nonzero;stroke:none"
             id="path60" />
        </g>
        <g
           id="g62"
           transform="translate(388.1427,294.6645)">
          <path
             d="m 0,0 57.954,-57.948 c 2.053,-2.06 4.2,-3.934 6.339,-5.711 14.015,-11.645 31.668,-18.665 49.819,-20.042 21.825,-1.65 44.496,4.859 61.402,18.919 20.503,17.044 32.336,31.241 51.151,50.053 5.011,5.014 9.386,11.114 13.001,18.143 6.806,13.135 10.41,28.625 10.41,44.798 0,24.941 -8.536,47.777 -23.411,62.657 L 212.982,124.548 107.011,18.594 C 81.671,-6.757 36.417,-14.13 0,0"
             style="fill:#0f3fff;fill-opacity:1;fill-rule:nonzero;stroke:none"
             id="path64" />
        </g>
        <g
           id="g66"
           transform="translate(367.1407,528.27)">
          <path
             d="M 0,0 C 1.143,8.02 3.138,15.757 5.95,23.007 L -10.507,6.557 c -0.15,-0.15 -0.303,-0.3 -0.453,-0.45 C -7.221,3.851 -3.563,1.806 0,0"
             style="fill:#ff006b;fill-opacity:1;fill-rule:nonzero;stroke:none"
             id="path68" />
        </g>
        <g
           id="g70"
           transform="translate(416.7437,523.7997)">
          <path
             d="M 0,0 C 36.574,25.797 32.934,59.09 20.381,91.791 15.541,86.943 10.8,81.959 5.95,77.108 L -13.961,57.2 C -18.977,52.176 -23.353,46.075 -26.958,39.049 -33.092,27.222 -36.61,13.475 -37.25,-0.96 -22.294,-6.446 -9.525,-6.719 0,0"
             style="fill:#ff006b;fill-opacity:1;fill-rule:nonzero;stroke:none"
             id="path72" />
        </g>
        <g
           id="g74"
           transform="translate(450.6363,232.5287)">
          <path
             d="m 0,0 c -2.396,4.542 -5.378,9.024 -8.984,13.429 -12.58,15.364 -20.951,29.34 -26.351,42.234 -9.295,0.973 -18.478,3.105 -27.159,6.473 L -4.54,4.188 C -3.063,2.706 -1.536,1.323 0,0"
             style="fill:#ff006b;fill-opacity:1;fill-rule:nonzero;stroke:none"
             id="path76" />
        </g>
        <g
           id="g78"
           transform="translate(358.3941,324.499)">
          <path
             d="m 0,0 c 13.316,-13.289 32.854,-20.781 52.2,-22.885 -14.187,50.326 15.158,83.938 1.304,122.27 l -20.271,20.274 c -6.941,6.937 -12.606,15.435 -16.837,24.981 -3.515,2.74 -7.302,5.526 -11.401,8.365 -13.109,9.082 -25.782,17.955 -38.056,26.635 -19.981,-20.801 -36.786,-43.975 -36.786,-74.458 0,-23.115 9.182,-44.513 26.543,-61.881 z"
             style="fill:#ff006b;fill-opacity:1;fill-rule:nonzero;stroke:none"
             id="path80" />
        </g>
        <g
           id="g82"
           transform="translate(546.4337,291.7719)">
          <path
             d="m 0,0 c -18.997,14.647 -76.612,-0.143 -127.664,-27.732 l 27.327,-27.323 c 2.053,-2.06 4.2,-3.935 6.339,-5.711 14.015,-11.646 31.668,-18.666 49.819,-20.043 21.825,-1.649 44.496,4.86 61.402,18.919 5.958,4.953 11.172,9.663 16.05,14.318 C 19.475,-23.161 7.395,-5.701 0,0"
             style="fill:#b058e9;fill-opacity:1;fill-rule:nonzero;stroke:none"
             id="path84" />
        </g>
        <g
           id="g86"
           transform="translate(388.1427,294.6645)">
          <path
             d="m 0,0 51.391,-51.386 c 6.903,12.877 9.822,29.232 9.403,46.466 C 40.884,-8.918 19.213,-7.455 0,0"
             style="fill:#00eacb;fill-opacity:1;fill-rule:nonzero;stroke:none"
             id="path88" />
        </g>
        <g
           id="g90"
           transform="translate(297.0685,392.7509)">
          <path
             d="m 0,0 c 4.382,-8.96 10.417,-17.342 18.021,-24.951 l 43.305,-43.301 c 18.314,-18.277 48.399,-25.601 73.565,-23 5.315,0.55 10.637,1.532 15.851,2.936 -4.529,35.313 -21.892,71.215 -46.837,86.411 C 75.057,15.667 33.469,11.282 0,0"
             style="fill:#00eacb;fill-opacity:1;fill-rule:nonzero;stroke:none"
             id="path92" />
        </g>
        <g
           id="g94"
           transform="translate(669.2242,363.2143)">
          <path
             d="m 0,0 c -8.142,7.63 -16.457,15.431 -24.383,23.629 1.291,-3.42 2.385,-6.968 3.316,-10.601 5.816,-5.732 11.735,-11.294 17.57,-16.761 4.871,-4.566 9.788,-9.18 14.645,-13.898 l 3.619,3.619 C 9.866,-9.251 4.91,-4.602 0,0"
             style="fill:#1f1852;fill-opacity:1;fill-rule:nonzero;stroke:none"
             id="path96" />
        </g>
        <g
           id="g98"
           transform="translate(573.9205,505.4926)">
          <path
             d="m 0,0 c -3.726,15.012 -4.408,30.878 -5.066,46.22 -0.098,2.289 -0.197,4.597 -0.307,6.916 -1.705,-0.461 -3.387,-0.976 -5.052,-1.525 0.086,-1.879 0.168,-3.752 0.247,-5.61 0.67,-15.597 1.359,-31.722 5.21,-47.235 C -0.411,-19.605 6.657,-36.38 14.889,-51.56 L 29.513,-66.185 C 17.252,-47.126 6.214,-25.051 0,0"
             style="fill:#1f1852;fill-opacity:1;fill-rule:nonzero;stroke:none"
             id="path100" />
        </g>
        <g
           id="g102"
           transform="translate(531.817,538.2997)">
          <path
             d="m 0,0 -2.67,-2.673 c 1.34,-9.038 2.935,-18.015 4.862,-26.894 l 6.815,-6.815 C 5.977,-23.877 3.676,-11.126 1.865,1.751 1.239,1.172 0.602,0.602 0,0"
             style="fill:#1f1852;fill-opacity:1;fill-rule:nonzero;stroke:none"
             id="path104" />
        </g>
        <g
           id="g106"
           transform="translate(521.6246,618.5463)">
          <path
             d="m 0,0 c 1.308,-21.047 2.636,-42.408 5.016,-63.593 1.538,1.235 3.124,2.422 4.764,3.55 C 7.613,-39.938 6.35,-19.668 5.108,0.316 L 4.297,13.172 C 3.943,18.703 3.895,24.538 4.096,30.576 2.405,30.898 0.706,31.156 -0.999,31.373 -1.234,24.935 -1.191,18.72 -0.811,12.841 Z"
             style="fill:#1f1852;fill-opacity:1;fill-rule:nonzero;stroke:none"
             id="path108" />
        </g>
        <g
           id="g110"
           transform="translate(638.0279,336.5268)">
          <path
             d="m 0,0 c -7.979,8.645 -16.07,17.16 -24.051,25.555 l -4.713,4.96 C -38.975,41.27 -47.66,52.756 -55.124,64.468 l -3.703,-3.703 c 7.486,-11.634 16.17,-23.05 26.35,-33.773 l 4.714,-4.963 C -18.752,12.552 -9.601,2.922 -0.637,-6.868 -0.354,-4.601 -0.137,-2.311 0,0"
             style="fill:#1f1852;fill-opacity:1;fill-rule:nonzero;stroke:none"
             id="path112" />
        </g>
        <g
           id="g114"
           transform="translate(728.5396,434.4233)">
          <path
             d="m 0,0 c -0.672,16.12 -5.627,32.532 -14.988,45.598 -10.908,15.223 -25.116,27.639 -38.294,40.814 -8.356,8.359 -10.865,10.865 -19.227,19.225 -4.453,4.444 -9.682,8.253 -15.946,11.622 -11.431,6.103 -24.493,9.475 -37.763,10.312 0.979,-1.174 1.955,-2.347 2.966,-3.527 3.06,-23.564 9.09,-47.061 18.129,-71.403 15.638,-42.126 40.158,-85.928 71.01,-127.427 l 3.654,3.655 c -30.351,40.928 -54.469,84.071 -69.867,125.553 -7.912,21.313 -13.484,41.97 -16.734,62.606 15.585,-17.217 34.62,-34.936 57.329,-53.083 11.054,-37.226 26.115,-76.305 49.68,-108.954 0.91,1.734 1.744,3.496 2.532,5.274 C -28.229,-10.268 -42.16,24.416 -52.6,58.093 -30.595,39.545 -13.426,20.039 0,0"
             style="fill:#1f1852;fill-opacity:1;fill-rule:nonzero;stroke:none"
             id="path116" />
        </g>
        <g
           id="g118"
           transform="translate(653.8082,319.019)">
          <path
             d="M 0,0 C -1.605,1.834 -3.226,3.659 -4.852,5.481 -5.3,3.455 -5.8,1.452 -6.36,-0.523 c 0.914,-1.033 1.827,-2.066 2.734,-3.103 z"
             style="fill:#1f1852;fill-opacity:1;fill-rule:nonzero;stroke:none"
             id="path120" />
        </g>
        <g
           id="g122"
           transform="translate(566.8536,581.0629)">
          <path
             d="m 0,0 c -0.551,4.601 -1.158,9.201 -1.763,13.809 -1.652,12.532 -3.333,25.338 -3.787,38.221 -1.691,1.276 -3.428,2.488 -5.201,3.644 0.225,-14.402 2.083,-28.633 3.914,-42.534 0.604,-4.586 1.21,-9.167 1.754,-13.744 0.323,-2.719 0.585,-5.46 0.809,-8.209 1.668,0.416 3.352,0.781 5.045,1.12 C 0.555,-5.123 0.304,-2.556 0,0"
             style="fill:#1f1852;fill-opacity:1;fill-rule:nonzero;stroke:none"
             id="path124" />
        </g>
        <g
           id="g126"
           transform="translate(571.5001,624.2143)">
          <path
             d="m 0,0 c -3.189,3.188 -6.593,6.158 -10.185,8.869 5.565,-18.322 15.575,-37.55 30.357,-57.545 12.01,-0.209 23.973,-2.336 34.999,-6.499 z"
             style="fill:#1f1852;fill-opacity:1;fill-rule:nonzero;stroke:none"
             id="path128" />
        </g>
      </g>
    </g>
  </g>
</svg>
