<svg width="720" height="253" viewBox="0 0 720 253" fill="none" xmlns="http://www.w3.org/2000/svg">
<g clip-path="url(#clip0_3127_277)">
<path d="M290.002 107.75C290.927 109.533 292.157 110.976 293.691 112.08C295.222 113.186 297.022 114.005 299.09 114.54C301.157 115.074 303.295 115.342 305.505 115.342C307.002 115.342 308.606 115.218 310.317 114.967C312.028 114.719 313.631 114.237 315.128 113.524C316.625 112.813 317.872 111.832 318.87 110.583C319.868 109.337 320.368 107.75 320.368 105.826C320.368 103.759 319.708 102.083 318.389 100.8C317.07 99.5172 315.342 98.4477 313.204 97.5927C311.066 96.737 308.641 95.9889 305.933 95.347C303.224 94.7051 300.48 93.9943 297.7 93.2088C294.848 92.4967 292.068 91.6233 289.36 90.5893C286.65 89.5566 284.228 88.2203 282.089 86.5798C279.951 84.9405 278.222 82.8909 276.904 80.4314C275.584 77.9725 274.925 74.997 274.925 71.5035C274.925 67.5838 275.763 64.1795 277.438 61.2925C279.113 58.4055 281.304 55.9998 284.014 54.0753C286.723 52.1509 289.788 50.7254 293.209 49.7983C296.631 48.8731 300.053 48.4082 303.473 48.4082C307.465 48.4082 311.296 48.8547 314.968 49.7452C318.638 50.6369 321.9 52.0807 324.751 54.0753C327.601 56.0719 329.865 58.6192 331.541 61.7206C333.215 64.8207 334.053 68.5818 334.053 73.0005H317.802C317.658 70.72 317.177 68.8309 316.358 67.3333C315.537 65.8364 314.45 64.6608 313.097 63.8051C311.742 62.9501 310.192 62.3449 308.445 61.9875C306.698 61.6315 304.792 61.4531 302.725 61.4531C301.371 61.4531 300.015 61.5967 298.662 61.8806C297.307 62.1659 296.078 62.6655 294.974 63.3776C293.868 64.091 292.959 64.9814 292.247 66.0502C291.533 67.1196 291.178 68.4749 291.178 70.1141C291.178 71.6104 291.462 72.8234 292.033 73.7493C292.603 74.6764 293.725 75.5314 295.401 76.3156C297.075 77.1005 299.392 77.884 302.351 78.6676C305.308 79.4524 309.176 80.4497 313.952 81.6614C315.377 81.9467 317.355 82.4634 319.887 83.2115C322.416 83.9603 324.928 85.1543 327.424 86.7935C329.919 88.4341 332.075 90.626 333.893 93.3688C335.71 96.1141 336.62 99.624 336.62 103.901C336.62 107.394 335.941 110.637 334.588 113.631C333.233 116.625 331.22 119.209 328.547 121.382C325.874 123.557 322.559 125.25 318.603 126.461C314.647 127.673 310.066 128.28 304.864 128.28C300.657 128.28 296.578 127.762 292.621 126.728C288.665 125.696 285.172 124.074 282.143 121.864C279.113 119.655 276.707 116.838 274.925 113.417C273.143 109.996 272.288 105.933 272.36 101.228H288.612C288.612 103.794 289.074 105.969 290.002 107.75Z" fill="black"/>
<path d="M402.697 120.741C396.923 125.767 388.939 128.28 378.747 128.28C368.41 128.28 360.41 125.785 354.743 120.795C349.076 115.807 346.242 108.108 346.242 97.6997V50.2266H363.029V97.6997C363.029 99.7684 363.206 101.8 363.564 103.794C363.92 105.791 364.668 107.555 365.809 109.087C366.948 110.621 368.535 111.867 370.567 112.83C372.599 113.792 375.325 114.273 378.747 114.273C384.734 114.273 388.867 112.937 391.15 110.263C393.43 107.59 394.571 103.404 394.571 97.6997V50.2266H411.358V97.6997C411.358 108.036 408.471 115.716 402.697 120.741Z" fill="black"/>
<path d="M455.624 86.1524C457.549 86.1524 459.402 86.0101 461.184 85.7249C462.965 85.4403 464.534 84.8876 465.888 84.0673C467.242 83.2483 468.329 82.0897 469.15 80.5928C469.968 79.0952 470.379 77.136 470.379 74.7119C470.379 72.2892 469.968 70.328 469.15 68.8311C468.329 67.3341 467.242 66.1762 465.888 65.3559C464.534 64.5376 462.965 63.9842 461.184 63.699C459.402 63.4144 457.549 63.2715 455.624 63.2715H442.579V86.1524H455.624ZM460.222 50.2266C464.997 50.2266 469.059 50.9216 472.411 52.3117C475.76 53.7017 478.487 55.5376 480.59 57.8181C482.692 60.1006 484.225 62.701 485.188 65.6228C486.15 68.5465 486.631 71.5764 486.631 74.7119C486.631 77.7779 486.15 80.7895 485.188 83.7467C484.225 86.7058 482.692 89.3253 480.59 91.6051C478.487 93.8875 475.76 95.7222 472.411 97.1122C469.059 98.5016 464.997 99.1973 460.222 99.1973H442.579V126.569H425.793V50.2266H460.222Z" fill="black"/>
<path d="M554.202 50.2266V64.3403H513.892V80.6997H550.887V93.744H513.892V112.455H555.057V126.569H497.105V50.2266H554.202Z" fill="black"/>
<path d="M601.568 84.7623C605.417 84.7623 608.304 83.9067 610.228 82.1966C612.153 80.4859 613.115 77.7052 613.115 73.8563C613.115 70.151 612.153 67.4594 610.228 65.7841C608.304 64.1101 605.417 63.2715 601.568 63.2715H583.177V84.7623H601.568ZM607.555 50.2266C610.977 50.2266 614.059 50.78 616.804 51.8835C619.547 52.9896 621.899 54.5036 623.86 56.4281C625.82 58.3532 627.317 60.5812 628.352 63.1108C629.384 65.6418 629.902 68.3682 629.902 71.2899C629.902 75.7814 628.956 79.667 627.069 82.9448C625.179 86.2239 622.097 88.7181 617.82 90.4294V90.6432C619.886 91.2143 621.597 92.0864 622.952 93.2627C624.305 94.439 625.411 95.829 626.267 97.4322C627.122 99.0367 627.745 100.8 628.137 102.726C628.528 104.65 628.796 106.574 628.939 108.499C629.01 109.712 629.082 111.137 629.153 112.776C629.224 114.416 629.349 116.09 629.528 117.801C629.705 119.512 629.99 121.135 630.383 122.666C630.774 124.199 631.361 125.5 632.148 126.569H615.36C614.433 124.146 613.864 121.259 613.65 117.908C613.436 114.558 613.115 111.351 612.687 108.285C612.116 104.294 610.905 101.372 609.052 99.5179C607.197 97.665 604.169 96.7378 599.964 96.7378H583.177V126.569H566.391V50.2266H607.555Z" fill="black"/>
<path d="M326.142 158.782C325.143 157.178 323.897 155.771 322.399 154.559C320.903 153.348 319.209 152.404 317.321 151.725C315.431 151.049 313.453 150.709 311.387 150.709C307.608 150.709 304.4 151.442 301.764 152.901C299.126 154.364 296.987 156.323 295.348 158.782C293.708 161.242 292.515 164.04 291.766 167.176C291.018 170.313 290.644 173.556 290.644 176.905C290.644 180.113 291.018 183.232 291.766 186.261C292.515 189.291 293.708 192.018 295.348 194.441C296.987 196.865 299.126 198.808 301.764 200.268C304.4 201.73 307.608 202.46 311.387 202.46C316.519 202.46 320.529 200.893 323.416 197.755C326.303 194.62 328.066 190.485 328.708 185.352H344.96C344.532 190.129 343.427 194.441 341.646 198.29C339.863 202.139 337.51 205.419 334.589 208.127C331.665 210.837 328.243 212.903 324.324 214.328C320.403 215.754 316.091 216.467 311.387 216.467C305.541 216.467 300.284 215.451 295.616 213.419C290.946 211.387 287.009 208.591 283.801 205.026C280.593 201.462 278.134 197.274 276.423 192.462C274.712 187.651 273.857 182.466 273.857 176.905C273.857 171.204 274.712 165.911 276.423 161.028C278.134 156.146 280.593 151.886 283.801 148.251C287.009 144.615 290.946 141.765 295.616 139.697C300.284 137.63 305.541 136.596 311.387 136.596C315.592 136.596 319.566 137.202 323.309 138.414C327.051 139.626 330.401 141.391 333.359 143.707C336.316 146.023 338.759 148.892 340.683 152.314C342.608 155.735 343.819 159.656 344.318 164.075H328.066C327.781 162.151 327.139 160.386 326.142 158.782Z" fill="black"/>
<path d="M373.187 138.414V167.711H404.088V138.414H420.875V214.757H404.088V181.825H373.187V214.757H356.4V138.414H373.187Z" fill="black"/>
<path d="M474.653 185.246L465.03 157.232H464.816L454.872 185.246H474.653ZM473.691 138.414L502.239 214.757H484.81L479.037 197.756H450.488L444.501 214.757H427.607L456.476 138.414H473.691Z" fill="black"/>
<path d="M544.044 172.95C547.893 172.95 550.78 172.094 552.705 170.384C554.63 168.673 555.592 165.893 555.592 162.044C555.592 158.338 554.63 155.647 552.705 153.972C550.78 152.298 547.893 151.459 544.044 151.459H525.653V172.95H544.044ZM550.032 138.414C553.453 138.414 556.536 138.967 559.28 140.071C562.024 141.177 564.376 142.691 566.337 144.616C568.297 146.541 569.794 148.769 570.828 151.298C571.86 153.829 572.378 156.556 572.378 159.477C572.378 163.969 571.433 167.854 569.545 171.132C567.656 174.411 564.573 176.906 560.296 178.617V178.831C562.362 179.402 564.074 180.274 565.428 181.45C566.782 182.626 567.888 184.017 568.743 185.62C569.598 187.224 570.222 188.988 570.614 190.913C571.005 192.838 571.272 194.762 571.416 196.686C571.487 197.899 571.558 199.325 571.63 200.963C571.701 202.604 571.825 204.278 572.004 205.989C572.181 207.699 572.467 209.322 572.859 210.854C573.251 212.387 573.838 213.687 574.624 214.757H557.837C556.909 212.334 556.34 209.447 556.127 206.096C555.913 202.746 555.592 199.539 555.164 196.473C554.593 192.481 553.381 189.56 551.528 187.705C549.674 185.852 546.645 184.925 542.44 184.925H525.653V214.757H508.867V138.414H550.032Z" fill="black"/>
<path d="M631.289 214.168C627.654 215.7 623.981 216.467 620.276 216.467C614.43 216.467 609.173 215.451 604.504 213.419C599.835 211.388 595.897 208.591 592.69 205.027C589.482 201.462 587.023 197.274 585.312 192.462C583.601 187.652 582.746 182.466 582.746 176.905C582.746 171.204 583.601 165.911 585.312 161.028C587.023 156.146 589.482 151.886 592.69 148.251C595.897 144.615 599.835 141.765 604.504 139.697C609.173 137.63 614.43 136.596 620.276 136.596C624.195 136.596 627.991 137.185 631.662 138.361C635.334 139.536 638.648 141.266 641.607 143.546C644.564 145.828 647.006 148.643 648.931 151.993C650.856 155.344 652.031 159.193 652.459 163.541H636.421C635.422 159.264 633.497 156.056 630.647 153.917C627.795 151.779 624.338 150.71 620.276 150.71C616.496 150.71 613.289 151.442 610.653 152.902C608.015 154.364 605.876 156.323 604.238 158.782C602.597 161.242 601.404 164.04 600.656 167.176C599.907 170.313 599.532 173.556 599.532 176.905C599.532 180.113 599.907 183.232 600.656 186.261C601.404 189.292 602.597 192.018 604.238 194.441C605.876 196.865 608.015 198.808 610.653 200.268C613.289 201.73 616.496 202.46 620.276 202.46C625.836 202.46 630.129 201.053 633.16 198.236C636.189 195.421 637.953 191.34 638.453 185.994H621.559V173.484H653.635V214.756H642.943L641.232 206.095C638.239 209.945 634.924 212.636 631.289 214.168Z" fill="black"/>
<path d="M724.315 138.414V152.528H684.005V168.887H721V181.931H684.005V200.642H725.17V214.757H667.219V138.414H724.315Z" fill="black"/>
<path d="M160.064 145.191L40.1426 234.822L129.774 114.9L160.064 145.191Z" fill="black"/>
<path d="M183.748 24.7129L94.117 144.634L63.8262 114.344L183.748 24.7129Z" fill="black"/>
<path d="M39.8016 211.32L50.3739 197.173C30.3662 180.255 17.638 154.984 17.638 126.793C17.638 75.9785 58.9792 34.6374 109.794 34.6374C128.499 34.6374 145.917 40.2448 160.466 49.8592L171.039 35.7114C153.532 23.9018 132.454 17 109.794 17C49.2534 17 0 66.2527 0 126.793C0 160.756 15.5024 191.165 39.8016 211.32Z" fill="black"/>
<path d="M184.83 46.7188L174.198 60.9446C191.31 77.6863 201.95 101.017 201.95 126.79C201.95 177.605 160.609 218.946 109.794 218.946C93.4943 218.946 78.1728 214.686 64.8742 207.231L54.2422 221.457C70.5492 231.063 89.5379 236.583 109.794 236.583C170.334 236.583 219.587 187.33 219.587 126.79C219.587 95.2423 206.207 66.7638 184.83 46.7188Z" fill="black"/>
</g>
<defs>
<clipPath id="clip0_3127_277">
<rect width="720" height="253" fill="white"/>
</clipPath>
</defs>
</svg>
